{"scene":0,"asset":{"generator":"ImageToStl.com","version":"2.0"},"scenes":[{"name":"Scene","nodes":[0]}],"nodes":[{"name":"Node0","children":[1,2,3,4,5]},{"name":"Node1","mesh":0},{"name":"Node2","mesh":1},{"name":"Node3","mesh":2},{"name":"Node4","mesh":3},{"name":"Node5","mesh":4}],"materials":[{"name":"SVGMat.002","pbrMetallicRoughness":{"baseColorFactor":[1.0,0.921583,0.982251,1.0],"metallicFactor":0.5,"roughnessFactor":0.64},"emissiveFactor":[0.0,0.0,0.0],"doubleSided":true},{"name":"SVGMat.004","pbrMetallicRoughness":{"baseColorFactor":[0.971443,1.0,1.0,1.0],"metallicFactor":0.5,"roughnessFactor":0.64},"emissiveFactor":[0.0,0.0,0.0],"doubleSided":true},{"name":"SVGMat.006","pbrMetallicRoughness":{"baseColorFactor":[1.0,0.969725,0.882138,1.0],"metallicFactor":0.5,"roughnessFactor":0.64},"emissiveFactor":[0.0,0.0,0.0],"doubleSided":true},{"name":"SVGMat.007","pbrMetallicRoughness":{"baseColorFactor":[1.0,0.964487,0.936802,1.0],"metallicFactor":0.5,"roughnessFactor":0.64},"emissiveFactor":[0.0,0.0,0.0],"doubleSided":true},{"name":"SVGMat.008","pbrMetallicRoughness":{"baseColorFactor":[0.973439,1.0,1.0,1.0],"metallicFactor":0.5,"roughnessFactor":0.64},"emissiveFactor":[0.0,0.0,0.0],"doubleSided":true}],"meshes":[{"name":"Mesh0","primitives":[{"indices":3,"material":0,"attributes":{"POSITION":0,"NORMAL":1,"TEXCOORD_0":2}}]},{"name":"Mesh0","primitives":[{"indices":7,"material":1,"attributes":{"POSITION":4,"NORMAL":5,"TEXCOORD_0":6}}]},{"name":"Mesh0","primitives":[{"indices":11,"material":2,"attributes":{"POSITION":8,"NORMAL":9,"TEXCOORD_0":10}}]},{"name":"Mesh0","primitives":[{"indices":15,"material":3,"attributes":{"POSITION":12,"NORMAL":13,"TEXCOORD_0":14}}]},{"name":"Mesh0","primitives":[{"indices":19,"material":4,"attributes":{"POSITION":16,"NORMAL":17,"TEXCOORD_0":18}}]}],"accessors":[{"bufferView":0,"componentType":5126,"count":1684,"type":"VEC3","min":[-0.032731198,0.02284553,0.0013726549],"max":[0.09385951,0.036924038,0.11005582]},{"bufferView":1,"componentType":5126,"count":1684,"type":"VEC3"},{"bufferView":2,"componentType":5126,"count":1684,"type":"VEC2"},{"bufferView":3,"componentType":5123,"count":15120,"type":"SCALAR"},{"bufferView":4,"componentType":5126,"count":1060,"type":"VEC3","min":[-0.027143762,0.023020431,0.005762615],"max":[0.0900778,0.036809348,0.106901586]},{"bufferView":5,"componentType":5126,"count":1060,"type":"VEC3"},{"bufferView":6,"componentType":5126,"count":1060,"type":"VEC2"},{"bufferView":7,"componentType":5123,"count":9504,"type":"SCALAR"},{"bufferView":8,"componentType":5126,"count":770,"type":"VEC3","min":[0.0045064837,0.02383124,0.060484443],"max":[0.04776949,0.03521306,0.093639135]},{"bufferView":9,"componentType":5126,"count":770,"type":"VEC3"},{"bufferView":10,"componentType":5126,"count":770,"type":"VEC2"},{"bufferView":11,"componentType":5123,"count":6876,"type":"SCALAR"},{"bufferView":12,"componentType":5126,"count":578,"type":"VEC3","min":[0.023852844,0.02332848,0.032257363],"max":[0.05886978,0.035572186,0.093680605]},{"bufferView":13,"componentType":5126,"count":578,"type":"VEC3"},{"bufferView":14,"componentType":5126,"count":578,"type":"VEC2"},{"bufferView":15,"componentType":5123,"count":5148,"type":"SCALAR"},{"bufferView":16,"componentType":5126,"count":338,"type":"VEC3","min":[0.033168685,0.023625335,0.032264493],"max":[0.03910917,0.034230076,0.055791926]},{"bufferView":17,"componentType":5126,"count":338,"type":"VEC3"},{"bufferView":18,"componentType":5126,"count":338,"type":"VEC2"},{"bufferView":19,"componentType":5123,"count":2988,"type":"SCALAR"}],"bufferViews":[{"target":34962,"buffer":0,"byteLength":20208,"byteOffset":0},{"target":34962,"buffer":0,"byteLength":20208,"byteOffset":20208},{"target":34962,"buffer":0,"byteLength":13472,"byteOffset":40416},{"target":34963,"buffer":0,"byteLength":30240,"byteOffset":53888},{"target":34962,"buffer":0,"byteLength":12720,"byteOffset":84128},{"target":34962,"buffer":0,"byteLength":12720,"byteOffset":96848},{"target":34962,"buffer":0,"byteLength":8480,"byteOffset":109568},{"target":34963,"buffer":0,"byteLength":19008,"byteOffset":118048},{"target":34962,"buffer":0,"byteLength":9240,"byteOffset":137056},{"target":34962,"buffer":0,"byteLength":9240,"byteOffset":146296},{"target":34962,"buffer":0,"byteLength":6160,"byteOffset":155536},{"target":34963,"buffer":0,"byteLength":13752,"byteOffset":161696},{"target":34962,"buffer":0,"byteLength":6936,"byteOffset":175448},{"target":34962,"buffer":0,"byteLength":6936,"byteOffset":182384},{"target":34962,"buffer":0,"byteLength":4624,"byteOffset":189320},{"target":34963,"buffer":0,"byteLength":10296,"byteOffset":193944},{"target":34962,"buffer":0,"byteLength":4056,"byteOffset":204240},{"target":34962,"buffer":0,"byteLength":4056,"byteOffset":208296},{"target":34962,"buffer":0,"byteLength":2704,"byteOffset":212352},{"target":34963,"buffer":0,"byteLength":5976,"byteOffset":215056}],"buffers":[{"byteLength":221032,"uri":"data:application/octet-stream;base64,"}]}